<svg width="320" height="240" viewBox="0 0 320 240" xmlns="http://www.w3.org/2000/svg" role="img" aria-label="Isometric placeholder 1">
  <defs>
    <linearGradient id="g1" x1="0" y1="0" x2="1" y2="1">
      <stop offset="0%" stop-color="#22ccf0"/>
      <stop offset="100%" stop-color="#7c3aed"/>
    </linearGradient>
    <linearGradient id="g1b" x1="1" y1="0" x2="0" y2="1">
      <stop offset="0%" stop-color="#99effd"/>
      <stop offset="100%" stop-color="#c4b5fd"/>
    </linearGradient>
  </defs>
  <rect width="320" height="240" rx="16" fill="#f8fafc"/>
  <g transform="translate(60,40)">
    <polygon points="80,0 160,46 80,92 0,46" fill="url(#g1)" opacity="0.9"/>
    <polygon points="80,92 160,46 160,126 80,172" fill="#22ccf0" opacity="0.55"/>
    <polygon points="80,92 0,46 0,126 80,172" fill="#7c3aed" opacity="0.35"/>

    <g transform="translate(40,22)">
      <polygon points="40,0 80,23 40,46 0,23" fill="#ffffff" opacity="0.9"/>
      <polygon points="40,46 80,23 80,69 40,92" fill="#22ccf0" opacity="0.25"/>
      <polygon points="40,46 0,23 0,69 40,92" fill="#7c3aed" opacity="0.18"/>
    </g>
  </g>
  <circle cx="280" cy="40" r="8" fill="#22ccf0" opacity="0.7"/>
  <circle cx="290" cy="58" r="4" fill="#7c3aed" opacity="0.5"/>
</svg>

